<svg width="59" height="57" viewBox="0 0 59 57" fill="none" xmlns="http://www.w3.org/2000/svg">
<g filter="url(#filter0_d_11_2921)">
<path d="M19.1645 17.9516L19.9534 17.7644V30.4788L17.6561 32.686L15.3588 31.4925V22.7669C15.3583 20.4738 16.9337 18.4808 19.1645 17.9516ZM7.03783 26.0421L4 25.591L7.00438 27.152L11.599 29.539V21.5813L10.8102 21.7685C8.75767 22.2559 7.26361 23.9832 7.03783 26.0421ZM30.4782 20.366L28.3068 21.3542V13.947L27.518 14.1342C25.2871 14.6638 23.7122 16.6564 23.7122 18.9491V26.8663L28.3068 22.4519L30.4782 20.366Z" fill="#0874F2"/>
<path d="M19.1645 17.9516L19.9534 17.7644V30.4788L17.6561 32.686L15.3588 31.4925V22.7669C15.3583 20.4738 16.9337 18.4808 19.1645 17.9516ZM7.03783 26.0421L4 25.591L7.00438 27.152L11.599 29.539V21.5813L10.8102 21.7685C8.75767 22.2559 7.26361 23.9832 7.03783 26.0421ZM30.4782 20.366L28.3068 21.3542V13.947L27.518 14.1342C25.2871 14.6638 23.7122 16.6564 23.7122 18.9491V26.8663L28.3068 22.4519L30.4782 20.366Z" fill="url(#paint0_linear_11_2921)"/>
<path d="M4 28.863L17.6556 48.5L54.5607 0.5L17.6556 35.9575L4 28.863Z" fill="#0874F2"/>
<path d="M4 28.863L17.6556 48.5L54.5607 0.5L17.6556 35.9575L4 28.863Z" fill="url(#paint1_linear_11_2921)"/>
</g>
<defs>
<filter id="filter0_d_11_2921" x="0" y="0.5" width="58.5607" height="56" filterUnits="userSpaceOnUse" color-interpolation-filters="sRGB">
<feFlood flood-opacity="0" result="BackgroundImageFix"/>
<feColorMatrix in="SourceAlpha" type="matrix" values="0 0 0 0 0 0 0 0 0 0 0 0 0 0 0 0 0 0 127 0" result="hardAlpha"/>
<feOffset dy="4"/>
<feGaussianBlur stdDeviation="2"/>
<feComposite in2="hardAlpha" operator="out"/>
<feColorMatrix type="matrix" values="0 0 0 0 0 0 0 0 0 0 0 0 0 0 0 0 0 0 0.25 0"/>
<feBlend mode="normal" in2="BackgroundImageFix" result="effect1_dropShadow_11_2921"/>
<feBlend mode="normal" in="SourceGraphic" in2="effect1_dropShadow_11_2921" result="shape"/>
</filter>
<linearGradient id="paint0_linear_11_2921" x1="18.2191" y1="38.2198" x2="17.1534" y2="21.6422" gradientUnits="userSpaceOnUse">
<stop stop-color="#0874F2"/>
<stop offset="1" stop-color="#0874F2" stop-opacity="0"/>
</linearGradient>
<linearGradient id="paint1_linear_11_2921" x1="32.299" y1="61.6366" x2="29.6056" y2="19.7402" gradientUnits="userSpaceOnUse">
<stop stop-color="#0874F2"/>
<stop offset="1" stop-color="#0874F2" stop-opacity="0"/>
</linearGradient>
</defs>
</svg>
